<svg version="1.1" id="Layer_1" xmlns="http://www.w3.org/2000/svg" x="0" y="0" viewBox="0 0 640 162" style="enable-background:new 0 0 640 162" xml:space="preserve"><style>.st2{fill:#59595b}</style><switch><g><linearGradient id="SVGID_1_" gradientUnits="userSpaceOnUse" x1="-20.383" y1="95.537" x2="163.983" y2="63.028"><stop offset="0" style="stop-color:#00ae6b"/><stop offset=".301" style="stop-color:#066db4"/><stop offset=".632" style="stop-color:#8c2a8a"/><stop offset="1" style="stop-color:#ef4e25"/></linearGradient><path d="M66.19 0C48.22 0 29.7 4.67 21.13 8.78c-7.93 3.57-10.3 9.41-10.3 14.45 0 9.12 8.52 15.92 21.5 11.75 8.23-2.93 20.02-6.46 32.04-6.46 22.96 0 32.68 8.55 32.68 28.54v9.68c-13.56-3.21-23.56-4.95-37.37-4.95C19.89 61.79 1.23 83.48 0 108v5.38c1.19 25.69 18.71 45.4 52.81 47.89 2.24.22 4.54.35 6.89.36v-46.68l-14.68 8.34c-3.45 1.89-7.01 2.36-10.68 1.42-3.67-.95-6.45-3.2-8.34-6.76-.89-1.67-1.42-3.39-1.59-5.17-.17-1.78 0-3.53.5-5.26s1.31-3.34 2.42-4.84c1.11-1.5 2.5-2.75 4.17-3.75l34.37-19.35c2.44-1.33 4.95-2 7.51-2 2.34 0 4.36.48 6.09 1.42 1.72.95 3.17 2.11 4.34 3.5 1.17 1.39 2.03 2.95 2.58 4.67s.83 3.31.83 4.76v66.73c.54-.12 1.08-.25 1.61-.38 15.8-3.67 27.23-9.58 32.63-13.19 4.44-3.02 5.59-6.19 5.59-11.5V57.05C127.07 17.33 103.82 0 66.19 0z" style="fill:url(#SVGID_1_)"/><linearGradient id="SVGID_00000049902224605668032140000005892873054499368889_" gradientUnits="userSpaceOnUse" x1="96.009" y1="122.618" x2="475.34" y2="55.731"><stop offset="0" style="stop-color:#00ae6b"/><stop offset=".301" style="stop-color:#066db4"/><stop offset=".632" style="stop-color:#8c2a8a"/><stop offset="1" style="stop-color:#ef4e25"/></linearGradient><path style="fill:url(#SVGID_00000049902224605668032140000005892873054499368889_)" d="M322.24 64.39c-4.31-3.61-10.2-5.42-17.66-5.42-3.58 0-7.02.37-10.32 1.11-3.3.74-5.81 1.54-7.52 2.39-1.56.7-2.62 1.57-3.21 2.62-.58 1.05-.87 2.08-.87 3.09 0 1.79.78 3.23 2.33 4.31 1.55 1.09 3.61 1.21 6.18.35 1.63-.62 3.56-1.2 5.77-1.75 2.22-.54 4.53-.82 6.94-.82 4.59 0 7.89.89 9.91 2.68 2.02 1.79 3.03 4.66 3.03 8.63v3.85c-2.72-.62-5.19-1.11-7.4-1.46-2.22-.35-4.68-.52-7.4-.52-4.12 0-7.66.52-10.61 1.57-2.96 1.05-5.4 2.47-7.35 4.26-1.94 1.79-3.38 3.85-4.31 6.18-.93 2.33-1.4 4.78-1.4 7.35 0 2.88.5 5.54 1.52 7.99 1.01 2.45 2.51 4.59 4.49 6.41 1.98 1.83 4.47 3.25 7.46 4.26 2.99 1.01 6.47 1.52 10.43 1.52 3.03 0 5.85-.23 8.45-.7 2.6-.47 4.93-1.05 7-1.75 2.06-.7 3.83-1.42 5.3-2.16 1.48-.74 2.64-1.38 3.5-1.92.85-.62 1.44-1.26 1.75-1.92.31-.66.47-1.53.47-2.62V81.59c-.01-7.85-2.17-13.59-6.48-17.2zm-5.42 44.13c-.62.47-2.02 1.19-4.2 2.16-2.18.97-5.29 1.46-9.33 1.46-4.2 0-7.39-.83-9.56-2.51-2.18-1.67-3.26-4.1-3.26-7.29 0-2.8 1.15-4.96 3.44-6.47 2.29-1.52 5.23-2.27 8.8-2.27 2.64 0 5.01.17 7.11.52 2.1.35 4.43.84 7 1.46v12.94zm88.49-56.78c1.94 0 3.57-.7 4.9-2.1 1.32-1.4 1.98-3.07 1.98-5.01s-.66-3.57-1.98-4.9c-1.32-1.32-2.96-1.98-4.9-1.98-2.02 0-3.69.66-5.01 1.98-1.32 1.32-1.98 2.96-1.98 4.9 0 1.94.66 3.61 1.98 5.01 1.32 1.4 2.99 2.1 5.01 2.1zm0 8.04c-1.79 0-3.26.6-4.43 1.81s-1.75 2.7-1.75 4.49v49.9c0 1.79.62 3.28 1.87 4.49 1.24 1.21 2.68 1.81 4.31 1.81 1.79 0 3.26-.6 4.43-1.81 1.17-1.2 1.75-2.7 1.75-4.49v-49.9c0-1.79-.6-3.28-1.81-4.49-1.2-1.2-2.66-1.81-4.37-1.81zm-199.9 4.61c-4.31-3.61-10.2-5.42-17.66-5.42-3.58 0-7.02.37-10.32 1.11-3.3.74-5.81 1.54-7.52 2.39-1.56.7-2.62 1.57-3.21 2.62-.58 1.05-.87 2.08-.87 3.09 0 1.79.78 3.23 2.33 4.31 1.55 1.09 3.61 1.21 6.18.35 1.63-.62 3.56-1.2 5.77-1.75 2.22-.54 4.53-.82 6.94-.82 4.59 0 7.89.89 9.91 2.68 2.02 1.79 3.03 4.66 3.03 8.63v3.85c-2.72-.62-5.19-1.11-7.4-1.46-2.22-.35-4.68-.52-7.4-.52-4.12 0-7.66.52-10.61 1.57-2.96 1.05-5.4 2.47-7.35 4.26-1.94 1.79-3.38 3.85-4.31 6.18-.93 2.33-1.4 4.78-1.4 7.35 0 2.88.5 5.54 1.52 7.99 1.01 2.45 2.51 4.59 4.49 6.41 1.98 1.83 4.47 3.25 7.46 4.26 2.99 1.01 6.47 1.52 10.43 1.52 3.03 0 5.85-.23 8.45-.7 2.6-.47 4.93-1.05 7-1.75 2.06-.7 3.83-1.42 5.3-2.16 1.48-.74 2.64-1.38 3.5-1.92.85-.62 1.44-1.26 1.75-1.92.31-.66.47-1.53.47-2.62V81.59c0-7.85-2.16-13.59-6.48-17.2zm-5.42 44.13c-.62.47-2.02 1.19-4.2 2.16-2.18.97-5.29 1.46-9.33 1.46-4.2 0-7.39-.83-9.56-2.51-2.18-1.67-3.26-4.1-3.26-7.29 0-2.8 1.15-4.96 3.44-6.47 2.29-1.52 5.23-2.27 8.8-2.27 2.64 0 5.01.17 7.11.52 2.1.35 4.43.84 7 1.46v12.94zm164.05-49.55c-3.03 0-5.85.21-8.45.64-2.61.43-4.92.97-6.94 1.63-2.02.66-3.77 1.36-5.25 2.1s-2.64 1.42-3.5 2.04c-.86.62-1.48 1.26-1.87 1.92-.39.66-.58 1.61-.58 2.86v45.82c0 1.79.62 3.28 1.87 4.49 1.24 1.21 2.68 1.81 4.31 1.81 1.79 0 3.26-.6 4.43-1.81 1.17-1.2 1.75-2.7 1.75-4.49V74.12c1.32-.85 3.24-1.61 5.77-2.27 2.53-.66 5.23-.99 8.1-.99 1.79 0 3.5.25 5.13.76s3.07 1.3 4.31 2.39c1.24 1.09 2.23 2.47 2.97 4.14.74 1.67 1.11 3.67 1.11 6v31.83c0 1.79.62 3.28 1.87 4.49 1.24 1.21 2.68 1.81 4.31 1.81 1.79 0 3.26-.6 4.43-1.81 1.17-1.2 1.75-2.7 1.75-4.49V83.57c0-7.93-2.14-14.01-6.41-18.25-4.27-4.23-10.64-6.35-19.11-6.35zm-98.76-20.41c-1.71 0-3.17.6-4.37 1.81-1.21 1.21-1.81 2.7-1.81 4.49v17.49c-1.94-.85-4.28-1.63-7-2.33-2.72-.7-5.48-1.05-8.28-1.05-7.54 0-13.43 2.08-17.66 6.24-4.24 4.16-6.67 9.89-7.29 17.2-.08 1.09-.14 2.35-.17 3.79a168.11 168.11 0 0 0 0 9.04c.04 1.48.1 2.72.17 3.73.31 3.58 1.13 6.84 2.45 9.79 1.32 2.96 3.13 5.48 5.42 7.58 2.29 2.1 4.99 3.73 8.1 4.9 3.11 1.17 6.65 1.75 10.61 1.75 2.8 0 5.48-.27 8.05-.82 2.57-.54 4.88-1.2 6.94-1.98 2.06-.78 3.85-1.57 5.36-2.39 1.52-.82 2.66-1.5 3.44-2.04.93-.62 1.53-1.28 1.81-1.98.27-.7.41-1.59.41-2.68V44.86c0-1.79-.58-3.28-1.75-4.49-1.16-1.2-2.64-1.81-4.43-1.81zm-6.17 68.33c-.62.47-1.42.93-2.39 1.4-.97.47-2.08.91-3.32 1.34-1.24.43-2.53.78-3.85 1.05-1.32.27-2.61.41-3.85.41-8.94 0-13.76-4.55-14.46-13.64-.08-.93-.14-2-.17-3.21-.04-1.2-.06-2.45-.06-3.73s.02-2.53.06-3.73c.04-1.2.1-2.2.17-2.97.23-4.27 1.44-7.5 3.61-9.68 2.18-2.18 5.48-3.26 9.91-3.26 3.03 0 5.87.41 8.51 1.22 2.64.82 4.59 1.61 5.83 2.39v32.41z"/><path class="st2" d="M470.2 58.97c3.74 0 7.21.56 10.4 1.69 3.19 1.13 5.98 2.72 8.35 4.78 2.38 2.06 4.28 4.53 5.73 7.4 1.44 2.88 2.28 6.06 2.51 9.56.08 1.17.13 2.47.17 3.91a163.593 163.593 0 0 1 0 8.8c-.04 1.48-.1 2.8-.17 3.96-.23 3.42-1.07 6.59-2.51 9.5a25.015 25.015 0 0 1-5.73 7.58c-2.38 2.14-5.16 3.81-8.35 5.01-3.19 1.2-6.66 1.81-10.4 1.81-3.66 0-7.09-.6-10.28-1.81-3.19-1.2-5.98-2.87-8.35-5.01-2.38-2.14-4.3-4.66-5.78-7.58-1.48-2.91-2.34-6.08-2.57-9.5-.08-1.17-.14-2.49-.17-3.96a163.593 163.593 0 0 1 0-8.8c.04-1.44.1-2.74.17-3.91.23-3.5 1.09-6.68 2.57-9.56 1.48-2.88 3.41-5.34 5.78-7.4 2.38-2.06 5.16-3.65 8.35-4.78 3.19-1.13 6.61-1.69 10.28-1.69zm-.06 11.89c-4.35 0-7.79 1.22-10.32 3.67-2.53 2.45-3.95 5.62-4.26 9.5-.08.93-.14 1.98-.17 3.15a110.48 110.48 0 0 0 0 7.28c.04 1.21.1 2.24.17 3.09.39 4.12 1.87 7.4 4.43 9.85 2.56 2.45 5.95 3.67 10.14 3.67 4.2 0 7.6-1.22 10.2-3.67 2.6-2.45 4.1-5.73 4.49-9.85.08-.85.12-1.88.12-3.09v-3.67c0-1.24-.02-2.45-.06-3.61-.04-1.17-.06-2.22-.06-3.15-.23-3.89-1.63-7.05-4.2-9.5-2.55-2.45-6.05-3.67-10.48-3.67zM557 115.98c0 1.79-.58 3.28-1.75 4.49-1.17 1.21-2.64 1.81-4.43 1.81-1.63 0-3.07-.6-4.31-1.81-1.24-1.2-1.87-2.7-1.87-4.49V84.15c0-2.33-.37-4.33-1.11-6-.74-1.67-1.73-3.05-2.97-4.14-1.24-1.09-2.68-1.88-4.31-2.39a17.4 17.4 0 0 0-5.13-.76c-2.88 0-5.58.33-8.1.99-2.53.66-4.45 1.42-5.77 2.27v41.86c0 1.79-.58 3.28-1.75 4.49-1.17 1.21-2.64 1.81-4.43 1.81-1.63 0-3.07-.6-4.31-1.81-1.24-1.2-1.87-2.7-1.87-4.49V70.16c0-1.24.19-2.2.58-2.86.39-.66 1.01-1.3 1.87-1.92.85-.62 2.02-1.3 3.5-2.04s3.22-1.44 5.25-2.1c2.02-.66 4.33-1.2 6.94-1.63 2.6-.43 5.42-.64 8.45-.64 8.47 0 14.85 2.12 19.12 6.35 4.27 4.24 6.41 10.32 6.41 18.25v32.41zM616.58 88.35c0 2.18-.6 3.96-1.81 5.36-1.21 1.4-3.09 2.1-5.65 2.1h-33v1.4c0 4.66 1.42 8.24 4.26 10.73s6.55 3.73 11.13 3.73c2.1 0 4.29-.25 6.59-.76 2.29-.5 4.57-1.18 6.82-2.04 1.24-.47 2.39-.64 3.44-.52 1.05.12 1.94.43 2.68.93a5.1 5.1 0 0 1 1.69 1.92c.39.78.58 1.59.58 2.45 0 .93-.19 1.85-.58 2.74-.39.89-1.24 1.73-2.57 2.51-1.01.62-2.24 1.19-3.67 1.69-1.44.51-2.99.93-4.66 1.28s-3.42.62-5.25.82c-1.83.19-3.6.29-5.3.29-4.04 0-7.68-.62-10.9-1.87-3.23-1.24-6-2.97-8.34-5.19s-4.18-4.86-5.54-7.93c-1.36-3.07-2.16-6.43-2.39-10.09-.08-1.09-.14-2.29-.17-3.61-.04-1.32-.06-2.62-.06-3.91s.02-2.53.06-3.73c.04-1.2.1-2.27.17-3.21.31-3.73 1.17-7.11 2.57-10.14 1.4-3.03 3.26-5.61 5.6-7.75 2.33-2.14 5.07-3.77 8.22-4.9 3.15-1.13 6.55-1.69 10.2-1.69 3.89 0 7.42.62 10.61 1.87 3.19 1.24 5.91 3.01 8.16 5.31 2.25 2.29 4 5.05 5.25 8.28 1.24 3.23 1.87 6.78 1.87 10.67v3.26zm-13.41-2.33c.78 0 1.24-.47 1.4-1.4.31-4.43-.8-7.99-3.32-10.67-2.53-2.68-6.04-4.02-10.55-4.02-4.98 0-8.69 1.46-11.13 4.37-2.45 2.91-3.6 6.82-3.44 11.72h27.04zM552.57 43.56c0 1.21-.19 2.25-.56 3.13-.38.88-.9 1.6-1.57 2.15a6.4 6.4 0 0 1-2.34 1.23c-.89.26-1.85.39-2.87.39h-7.86c-.93 0-1.64-.27-2.12-.82-.48-.55-.72-1.21-.72-1.98V29.23c0-.77.24-1.44.72-1.98.48-.55 1.18-.82 2.12-.82h7.61c1.11 0 2.1.17 2.97.51s1.59.8 2.17 1.37c.58.57 1.02 1.23 1.31 1.98s.44 1.55.44 2.39c0 .75-.08 1.41-.24 1.98-.16.57-.38 1.07-.67 1.5-.29.43-.62.79-.99 1.08-.38.28-.78.52-1.21.7v.03c1.16.34 2.09 1 2.79 1.97.67.98 1.02 2.18 1.02 3.62zm-8.05-7.08c1.28 0 2.22-.29 2.81-.87.59-.58.89-1.39.89-2.43 0-1.09-.31-1.9-.94-2.45-.63-.54-1.55-.82-2.76-.82h-6.38v6.56h6.38zm-6.38 10.49h6.62c1.4 0 2.42-.31 3.09-.94.66-.63.99-1.53.99-2.72 0-1.14-.35-2.02-1.05-2.65-.7-.63-1.63-.94-2.79-.94h-6.86v7.25zM571.71 26.43c.52 0 .97.17 1.33.5.36.33.55.76.55 1.28s-.19.96-.56 1.32c-.38.35-.81.53-1.32.53h-10.6v6.6h10.32c.48 0 .88.16 1.21.48.33.32.5.73.5 1.23 0 .46-.17.85-.51 1.2-.34.34-.74.51-1.2.51h-10.32v6.77h10.7c.48 0 .9.18 1.28.53.38.35.56.78.56 1.28 0 .53-.18.96-.53 1.3s-.79.51-1.32.51h-11.56c-.93 0-1.64-.27-2.12-.82-.48-.55-.72-1.21-.72-1.98V29.2c0-.78.24-1.43.72-1.97.48-.53 1.18-.8 2.12-.8h11.47zM584.33 30.05h-6.19c-.53 0-.97-.18-1.33-.53-.36-.35-.55-.78-.55-1.28 0-.52.18-.96.55-1.3.36-.34.81-.51 1.33-.51h16.03c.52 0 .97.17 1.33.51s.55.78.55 1.3c0 .5-.19.93-.56 1.28-.38.35-.82.53-1.32.53h-6.15v18.67c0 .52-.18.97-.53 1.33-.35.36-.79.55-1.32.55-.5 0-.93-.18-1.3-.55s-.55-.81-.55-1.33V30.05zM616.47 48.61c0 .46-.16.89-.48 1.3-.32.41-.76.61-1.33.61-.39 0-.73-.1-1.04-.31-.31-.21-.53-.5-.67-.89l-2.26-6.39h-10.26l-2.26 6.43c-.14.36-.36.65-.68.85-.32.2-.66.31-1.03.31-.57 0-1.01-.19-1.32-.58-.31-.39-.46-.81-.46-1.26 0-.25.03-.48.1-.68l6.84-19.01c.34-1 .87-1.74 1.57-2.22.71-.48 1.5-.72 2.39-.72.87 0 1.65.24 2.36.72s1.24 1.22 1.61 2.22l6.8 19.01c.08.2.12.41.12.61zm-14.88-9.02h7.93l-3.25-9.27c-.11-.34-.34-.51-.68-.51-.36 0-.61.17-.72.51l-3.28 9.27z"/><g><path class="st2" d="M620.86 61.56h-2.95a.89.89 0 0 1-.64-.25.832.832 0 0 1-.26-.61c0-.25.09-.46.26-.62.17-.16.39-.24.64-.24h7.64c.25 0 .46.08.64.24.17.16.26.37.26.62 0 .24-.09.44-.27.61-.18.17-.39.25-.63.25h-2.93v8.9c0 .25-.08.46-.25.64a.86.86 0 0 1-.63.26c-.24 0-.45-.09-.62-.26a.883.883 0 0 1-.26-.64v-8.9zM640 70.46c0 .25-.07.47-.21.65-.14.18-.36.28-.67.28-.22 0-.41-.07-.59-.2a.709.709 0 0 1-.29-.52l-1.16-8.96c-.02-.1-.07-.15-.15-.15-.08 0-.12.04-.15.13l-1.86 8.2c-.11.49-.3.85-.59 1.08-.28.23-.61.35-.99.35s-.71-.12-.99-.35c-.28-.23-.47-.59-.58-1.08l-1.87-8.18c-.02-.1-.07-.15-.15-.15-.08 0-.12.05-.15.15l-1.14 8.96c-.02.22-.12.39-.29.52-.17.13-.37.2-.59.2-.3 0-.53-.09-.67-.28-.14-.18-.21-.4-.21-.65 0-.09.01-.15.02-.2l1.29-8.95c.09-.55.28-.96.59-1.21.3-.25.66-.37 1.08-.37.42 0 .79.12 1.1.36.31.24.52.62.64 1.14l1.79 8.05c.01.03.03.07.05.1.02.03.06.05.11.05s.09-.02.11-.05c.02-.03.03-.07.04-.1l1.76-8.05c.12-.52.33-.9.64-1.14.3-.24.66-.36 1.08-.36.42 0 .79.12 1.09.37.3.25.5.65.59 1.21l1.3 8.95c.01.04.02.11.02.2z"/></g></g></switch></svg>